<?xml version="1.0" encoding="UTF-8" standalone="no"?>
<!DOCTYPE svg PUBLIC "-//W3C//DTD SVG 1.1//EN" "http://www.w3.org/Graphics/SVG/1.1/DTD/svg11.dtd">
<svg width="100%" height="100%" viewBox="0 0 120 120" version="1.1" xmlns="http://www.w3.org/2000/svg" xmlns:xlink="http://www.w3.org/1999/xlink" xml:space="preserve" xmlns:serif="http://www.serif.com/" style="fill-rule:evenodd;clip-rule:evenodd;stroke-linejoin:round;stroke-miterlimit:2;">
    <g transform="matrix(1,0,0,1,-1.39804,-1.19972)">
        <g transform="matrix(1,0,0,1,-35.1545,-40.1184)">
            <path d="M102.572,61.279L134.329,151.362C135.093,153.531 133.953,155.912 131.784,156.677C129.615,157.441 127.234,156.301 126.469,154.132L96.553,69.269L80.258,115.492L101.555,115.492C103.854,115.492 105.721,117.359 105.721,119.659C105.721,121.958 103.854,123.825 101.555,123.825L77.32,123.825L72.072,138.711L109.783,138.711C112.082,138.711 113.949,140.578 113.949,142.877C113.949,145.177 112.082,147.044 109.783,147.044L69.134,147.044L66.636,154.132C65.871,156.301 63.49,157.441 61.321,156.677C59.152,155.912 58.012,153.531 58.776,151.362L70.079,119.3C70.141,118.577 70.387,117.907 70.771,117.336L90.516,61.328C88.701,59.688 87.559,57.316 87.559,54.68C87.559,49.736 91.573,45.722 96.517,45.722C101.461,45.722 105.475,49.736 105.475,54.68C105.475,57.29 104.356,59.641 102.572,61.279Z" fill="currentColor"/>
        </g>
        <g transform="matrix(1,0,0,1,-31.9064,-39.2009)">
            <path d="M116.889,50.069C116.431,47.815 117.888,45.614 120.142,45.156C122.396,44.698 124.597,46.155 125.055,48.409C125.055,48.409 127.457,60.354 121.287,70.227C120.068,72.177 117.495,72.771 115.545,71.552C113.595,70.333 113.001,67.761 114.22,65.81C118.669,58.691 116.889,50.069 116.889,50.069ZM134.903,50.172C134.505,47.907 136.022,45.745 138.287,45.347C140.552,44.95 142.713,46.466 143.111,48.731C143.111,48.731 147.485,72.761 126.454,92.355C124.772,93.923 122.133,93.829 120.566,92.147C118.998,90.464 119.091,87.825 120.774,86.258C138.228,69.997 134.903,50.172 134.903,50.172ZM61.554,48.409C62.012,46.155 64.213,44.698 66.467,45.156C68.72,45.614 70.178,47.815 69.72,50.069C69.72,50.069 67.94,58.691 72.389,65.81C73.608,67.761 73.014,70.333 71.064,71.552C69.114,72.771 66.541,72.177 65.322,70.227C59.152,60.354 61.554,48.409 61.554,48.409ZM43.498,48.731C43.896,46.466 46.057,44.95 48.322,45.347C50.587,45.745 52.103,47.907 51.706,50.172C51.706,50.172 48.381,69.997 65.835,86.258C67.518,87.825 67.611,90.464 66.043,92.147C64.476,93.829 61.837,93.923 60.154,92.355C39.123,72.761 43.498,48.731 43.498,48.731Z" style="fill:rgb(81,166,247);"/>
        </g>
    </g>
</svg>
