<svg width="100%" height="100%" viewBox="0 0 35 35" fill="none" xmlns="http://www.w3.org/2000/svg">
<path d="M9.67141e-05 17.3887C-0.0318408 7.89319 7.85034 0.0246937 17.4599 5.61511e-05C26.8523 -0.0236689 34.9425 7.47344 34.9936 17.5611C35.042 27.1068 27.1105 34.9762 17.5229 34.9999C7.83757 35.0246 0.0329467 27.1807 9.67141e-05 17.3887ZM17.4654 32.1146C25.489 32.1301 32.0946 25.5966 32.1192 17.6204C32.1448 9.49189 25.6049 2.89816 17.5183 2.87991C9.48554 2.86166 3.12359 9.36049 2.88269 16.9215C2.60985 25.4917 9.47824 32.1502 17.4654 32.1146Z" fill="currentColor"></path>
<path d="M26.2427 12.9904C26.1934 14.3802 25.8202 15.6887 25.1778 16.9123C23.1074 20.8562 20.0596 23.778 15.9689 25.5683C14.8045 26.0775 13.5763 26.3476 12.286 26.1788C11.41 26.0638 10.6608 25.6888 10.0394 25.0719C9.70637 24.7416 9.39703 24.3812 9.11233 24.008C8.54658 23.2661 8.66794 22.3171 9.39521 21.7377C10.0248 21.2358 10.6645 20.7467 11.3096 20.2649C11.9438 19.7913 12.693 19.7968 13.3326 20.2831C13.8281 20.66 14.2962 21.0752 14.8027 21.4365C14.9396 21.5342 15.2042 21.5752 15.3575 21.5123C18.2839 20.326 20.2987 18.219 21.5169 15.3301C21.5762 15.1895 21.5351 14.9413 21.4439 14.8136C21.0916 14.319 20.6956 13.8564 20.3233 13.3755C19.7694 12.6601 19.7831 11.9246 20.3407 11.211C20.8088 10.6124 21.2595 10.0011 21.7277 9.40338C22.2259 8.76828 23.0763 8.51825 23.7187 8.93892C25.3028 9.97552 26.2035 11.0358 26.2418 12.9913L26.2427 12.9904Z" fill="#01A2FF"></path>
</svg>