<svg width="100%" height="100%" viewBox="0 0 35 35" fill="none" xmlns="http://www.w3.org/2000/svg">
<path d="M23.3163 29.1748H18.9779C18.9378 29.6765 18.9205 30.1727 18.8539 30.6626C18.5264 33.0944 16.3399 34.9845 13.8606 34.9945C11.3512 35.0045 9.15925 33.1264 8.83451 30.6589C8.75789 30.0742 8.76336 29.4776 8.7588 28.8865C8.75698 28.643 8.68674 28.5162 8.46052 28.3985C5.77233 26.9992 4.40406 24.7553 4.38399 21.7451C4.34933 16.5466 4.34203 11.3481 4.3922 6.14957C4.40953 4.37082 3.19269 2.88579 1.36377 2.87211C0.565609 2.86573 -0.0273072 2.16244 0.000970385 1.38982C0.0292479 0.638184 0.651354 0.0324973 1.42579 0.00330757C4.14591 -0.0997687 6.85326 2.22082 7.16614 4.93728C7.22543 5.44902 7.25462 5.96713 7.25553 6.48252C7.26192 11.5442 7.25827 16.6059 7.26009 21.6676C7.26009 24.4023 9.13097 26.2713 11.8684 26.2722C18.9825 26.2741 26.0957 26.2722 33.2098 26.2759C33.4652 26.2759 33.7306 26.2877 33.9733 26.3589C34.5826 26.5368 34.984 27.1051 34.984 27.7281C34.984 28.3228 34.5862 28.8683 33.997 29.0717C33.8556 29.121 33.7078 29.1538 33.5664 29.193C33.7917 33.1492 30.6912 35.0082 28.4217 35C26.0245 34.9908 23.0855 33.0251 23.3172 29.1766L23.3163 29.1748ZM16.0179 29.1885H11.6668C11.5409 30.2284 11.7015 31.1415 12.6191 31.7417C13.4191 32.2662 14.2629 32.2607 15.0601 31.7371C15.9723 31.1387 16.152 30.232 16.0179 29.1885ZM30.6119 29.1903H26.2617C26.1367 30.2512 26.3082 31.1734 27.2569 31.7681C28.0532 32.2671 28.8815 32.2479 29.6596 31.7344C30.569 31.1342 30.7478 30.2275 30.6119 29.1903Z" fill="currentColor"></path>
<path d="M21.8723 23.3186C19.9421 23.3186 18.0119 23.3286 16.0818 23.3159C13.2741 23.2985 10.9946 21.4787 10.3661 18.7404C10.2584 18.2715 10.221 17.778 10.2183 17.2955C10.2037 14.9703 10.2073 12.6452 10.2128 10.3201C10.2201 6.9377 12.7678 4.38816 16.1584 4.38086C19.9576 4.37265 23.7568 4.37448 27.557 4.38086C30.9284 4.38633 33.4834 6.893 33.5236 10.2635C33.5518 12.6644 33.5491 15.0661 33.5236 17.467C33.4889 20.7727 30.9257 23.3004 27.6154 23.3168C25.7007 23.3268 23.7851 23.3186 21.8705 23.3186H21.8723ZM17.5093 7.27794C16.879 7.27794 16.3016 7.23416 15.7324 7.28615C14.2072 7.42663 13.0989 8.67175 13.098 10.2042C13.0953 12.6197 13.0926 15.036 13.0989 17.4515C13.1035 19.1609 14.3486 20.4133 16.0571 20.4316C16.9994 20.4416 17.9408 20.4334 18.8831 20.4334C21.8157 20.4334 24.7475 20.4416 27.6801 20.4288C29.2764 20.4224 30.6146 19.1974 30.6329 17.675C30.6639 15.1382 30.6584 12.6005 30.6329 10.0637C30.6201 8.82044 29.7134 7.6492 28.5266 7.39835C27.7987 7.24419 27.0325 7.27247 26.2325 7.21591C26.2325 7.48136 26.2325 7.64464 26.2325 7.80883C26.2325 9.08497 26.2444 10.3611 26.2289 11.6372C26.2106 13.1077 25.2428 14.2972 23.7879 14.4778C22.7699 14.6037 21.7282 14.5553 20.6965 14.559C18.7034 14.5653 17.5121 13.3749 17.5102 11.3937C17.5093 10.0428 17.5102 8.69182 17.5102 7.27794H17.5093ZM20.4256 7.28433V11.65H23.3081V7.28433H20.4256Z" fill="#01A2FF"></path>
</svg>