<svg width="100%" height="100%" viewBox="0 0 35 35" fill="none" xmlns="http://www.w3.org/2000/svg">
<path d="M22.6699 18.2773C23.0126 17.9054 23.3216 17.5746 23.626 17.2401C24.8746 15.8711 26.1169 14.4985 27.3701 13.1341C28.5878 11.8079 30.3852 11.3513 32.0212 11.9383C33.7565 12.5608 34.8803 14.0473 34.9578 15.8884C35.0089 17.0961 34.585 18.157 33.7875 19.0547C30.4499 22.8117 27.1414 26.5959 23.7463 30.3009C20.8935 33.4143 17.2742 34.931 13.0561 34.9829C10.6727 35.0121 8.28839 34.9975 5.90408 34.9857C2.61016 34.9692 0.0627075 32.4683 0.021693 29.178C-0.00929568 26.7035 -0.00564995 24.228 0.0235159 21.7526C0.0590617 18.682 2.58464 16.1099 5.65708 16.0789C10.0757 16.0352 14.4943 16.0415 18.913 16.078C20.3384 16.0898 21.5032 16.7561 22.381 17.8936C22.4639 18.0011 22.5432 18.1114 22.6681 18.2791L22.6699 18.2773ZM12.2367 18.9454C10.1103 18.9454 7.98488 18.9353 5.85851 18.9481C4.14957 18.9581 2.90091 20.2241 2.9 21.9212C2.89817 24.2754 2.89817 26.6287 2.9 28.983C2.90091 30.8961 4.1122 32.101 6.03624 32.1028C8.31391 32.1046 10.5925 32.09 12.8702 32.1064C16.5414 32.1329 19.5573 30.7192 21.9845 27.9995C24.9065 24.7257 27.8231 21.4472 30.7397 18.1688C31.1125 17.7496 31.5007 17.3394 31.8298 16.8864C32.2035 16.3715 32.1989 15.8064 31.8544 15.265C31.5217 14.7418 31.015 14.4547 30.4234 14.6006C30.027 14.6981 29.615 14.9587 29.3334 15.2613C27.2963 17.4524 25.2902 19.6709 23.2796 21.8856C23.1502 22.0287 23.0372 22.1973 22.9579 22.3733C22.2242 23.9847 20.9682 24.897 19.231 25.1522C16.7857 25.5122 14.3385 25.8558 11.8922 26.2122C11.1393 26.3216 10.4448 25.8476 10.2671 25.0829C10.1049 24.3866 10.5214 23.6565 11.2378 23.4487C11.5841 23.3476 11.9514 23.3129 12.3114 23.2601C14.5162 22.9365 16.7246 22.6321 18.9266 22.2867C19.9328 22.129 20.5225 21.3561 20.4241 20.4456C20.3275 19.5505 19.6047 18.9463 18.6167 18.9454C16.4904 18.9426 14.3649 18.9454 12.2385 18.9454H12.2367Z" fill="currentColor"></path>
<path d="M13.0853 13.1113C11.689 13.1113 10.2918 13.1159 8.89548 13.1113C6.28331 13.1004 4.40029 11.211 4.39209 8.59242C4.38753 7.1961 4.38753 5.79888 4.39209 4.40256C4.4012 2.02372 6.23956 0.0759915 8.62114 0.0367999C11.6261 -0.011506 14.6329 -0.0133289 17.6379 0.0377113C19.9922 0.0778143 21.7995 1.97724 21.8506 4.37978C21.8816 5.83624 21.8734 7.29454 21.8533 8.75192C21.8205 11.1782 19.932 13.0703 17.504 13.1067C16.032 13.1286 14.5591 13.1104 13.0862 13.1113H13.0853ZM13.1254 10.2284C14.5682 10.2284 16.0101 10.2339 17.4529 10.2266C18.3479 10.2221 18.965 9.60502 18.9705 8.70452C18.9796 7.27722 18.9814 5.84992 18.9695 4.42261C18.9613 3.52121 18.3407 2.90781 17.4447 2.90599C14.56 2.90052 11.6744 2.90052 8.78975 2.90599C7.8929 2.90781 7.28042 3.52759 7.27677 4.42899C7.26948 5.8408 7.27039 7.25352 7.27677 8.66533C7.28133 9.62598 7.88379 10.2239 8.84444 10.2275C10.2717 10.2321 11.699 10.2284 13.1263 10.2275L13.1254 10.2284Z" fill="#01A2FF"></path>
<path d="M13.0963 7.2772C12.626 7.2772 12.1557 7.28813 11.6854 7.27446C10.8587 7.25168 10.2335 6.62643 10.2271 5.83349C10.2216 5.05604 10.8614 4.41348 11.6899 4.3998C12.6451 4.38431 13.6021 4.38431 14.5573 4.3998C15.3812 4.41348 16.0138 5.05239 16.0174 5.83987C16.022 6.61641 15.3794 7.25259 14.5518 7.27446C14.0669 7.28722 13.5812 7.2772 13.0954 7.2772H13.0963Z" fill="#01A2FF"></path>
</svg>