<svg width="129" height="36" viewBox="0 0 129 36" fill="none" xmlns="http://www.w3.org/2000/svg">
<path d="M6.73215 34.5597C4.71951 33.736 3.11025 32.5131 1.90436 30.8953C0.700602 29.2797 0.0658142 27.3307 0 25.0548H9.01017C9.1418 26.3414 9.58764 27.3244 10.3477 27.9995C11.1056 28.6768 12.0971 29.0143 13.3178 29.0143C14.5386 29.0143 15.5619 28.7256 16.2879 28.1481C17.014 27.5707 17.3771 26.7703 17.3771 25.747C17.3771 24.8893 17.0883 24.1802 16.5109 23.6176C15.9334 23.0571 15.2243 22.5942 14.3815 22.2312C13.5407 21.8682 12.3433 21.4563 10.7914 20.9935C8.54735 20.3014 6.71517 19.6071 5.29698 18.915C3.87667 18.2229 2.65592 17.1996 1.63262 15.8451C0.611435 14.4927 0.0997828 12.7285 0.0997828 10.5503C0.0997828 7.31475 1.26958 4.78197 3.61341 2.94979C5.95724 1.1176 9.01017 0.202576 12.7722 0.202576C16.5342 0.202576 19.6848 1.1176 22.0286 2.94979C24.3725 4.78197 25.6251 7.33174 25.7907 10.5991H16.6319C16.5661 9.47813 16.1521 8.59494 15.3941 7.94954C14.6341 7.30626 13.6617 6.98356 12.4728 6.98356C11.4495 6.98356 10.6237 7.25531 9.99738 7.80093C9.36897 8.34442 9.05688 9.12995 9.05688 10.1533C9.05688 11.2763 9.58339 12.151 10.6407 12.7773C11.6958 13.4036 13.3454 14.0809 15.5916 14.8069C17.8356 15.567 19.6593 16.2931 21.0627 16.9852C22.466 17.6773 23.6782 18.6857 24.7015 20.0041C25.7248 21.3247 26.2365 23.0231 26.2365 25.1037C26.2365 27.1843 25.7333 28.8827 24.727 30.5004C23.7207 32.1182 22.26 33.4048 20.3451 34.3622C18.4301 35.3197 16.1691 35.7974 13.562 35.7974C10.9549 35.7974 8.74267 35.3856 6.73003 34.5597H6.73215Z" fill="rgb(89, 89, 89)"></path>
<path d="M59.2582 0.697174L47.2291 23.9657V35.4513H38.7645V23.9657L26.7333 0.697174H36.3379L43.07 15.2527L49.7534 0.697174H59.2582Z" fill="rgb(89, 89, 89)"></path>
<path d="M91.7811 35.4513H83.3165L69.158 14.015V35.4513H60.6934V0.697174H69.158L83.3165 22.2311V0.697174H91.7811V35.4492V35.4513Z" fill="rgb(89, 89, 89)"></path>
<path d="M129 17.8728C129 20.2442 128.529 22.5116 127.673 24.5773L121.788 19.0617C121.835 18.6711 121.856 18.2762 121.856 17.8728C121.856 12.1194 117.173 7.43594 111.419 7.43594C105.666 7.43594 100.98 12.1194 100.98 17.8728C100.98 23.6262 105.664 28.3096 111.419 28.3096C111.689 28.3096 111.954 28.3012 112.217 28.2778H112.22L118.355 34.0291C116.228 34.9441 113.884 35.4515 111.419 35.4515C101.708 35.4515 93.8383 27.5836 93.8383 17.8728C93.8383 8.16201 101.71 0.294037 111.421 0.294037C121.132 0.294037 129 8.16201 129 17.8728Z" fill="#01a2ff"></path>
<path d="M127.469 33.8295C126.236 35.0587 124.242 35.0587 123.011 33.8295L121.474 32.2924L116.287 27.1037L114.691 25.5072C113.457 24.2779 113.457 22.2801 114.691 21.0488C115.306 20.4331 116.113 20.1274 116.92 20.1274C117.727 20.1274 118.531 20.4352 119.147 21.0488L120.716 22.6177L125.917 27.8191L127.469 29.3711C128.699 30.6046 128.699 32.5981 127.469 33.8295Z" fill="#01a2ff"></path>
</svg>