<svg width="100%" height="100%" viewBox="0 0 35 35" fill="none" xmlns="http://www.w3.org/2000/svg">
<path d="M8.70629 8.76277C8.91147 2.85436 13.8204 -0.0733927 17.5976 0.00139724C21.942 0.08622 26.1014 3.46271 26.2673 8.76277C26.4725 8.76277 26.6795 8.76003 26.8874 8.76277C28.3447 8.78466 29.8147 8.69619 31.2565 8.85763C33.4105 9.09841 34.9361 10.8551 34.9772 13.0285C35.0228 15.4747 34.9981 17.9227 34.9854 20.3698C34.9808 21.2326 34.3288 21.8729 33.5263 21.861C32.7247 21.8492 32.1128 21.2044 32.1092 20.3269C32.1 18.0012 32.1073 15.6754 32.1055 13.3496C32.1055 12.2195 31.5292 11.6477 30.3938 11.6467C29.0287 11.6458 27.6635 11.6467 26.2345 11.6467C26.2345 12.4056 26.2345 13.1289 26.2345 13.853C26.2345 14.0966 26.2427 14.3401 26.2318 14.5827C26.1944 15.4036 25.546 16.0375 24.7645 16.022C23.9994 16.0074 23.372 15.3799 23.3537 14.5745C23.3355 13.7691 23.3492 12.9638 23.3492 12.1575C23.3492 12.0079 23.3492 11.8593 23.3492 11.6778H11.6427C11.6427 12.2907 11.6427 12.9072 11.6427 13.5238C11.6427 13.8585 11.6491 14.1923 11.6409 14.5271C11.619 15.3844 10.9834 16.0311 10.1818 16.021C9.39753 16.011 8.77377 15.3716 8.76191 14.5371C8.74915 13.5968 8.75918 12.6564 8.75918 11.6787C8.6005 11.6659 8.4701 11.6477 8.33969 11.6477C7.04749 11.6458 5.75619 11.6431 4.46399 11.6477C3.51193 11.6513 2.89 12.2642 2.88908 13.21C2.88635 18.0586 2.87996 22.9081 2.89091 27.7567C2.89638 30.1573 4.8397 32.1009 7.24811 32.1091C11.5643 32.1237 15.8804 32.1164 20.1966 32.1091C20.731 32.1091 21.1906 32.2468 21.5299 32.6682C21.8819 33.1069 21.9557 33.6049 21.7277 34.123C21.5007 34.6383 21.0803 34.911 20.5304 34.9885C20.4109 35.0049 20.2878 34.9976 20.1656 34.9976C15.9105 34.9976 11.6546 35.004 7.39949 34.9958C3.76362 34.9885 0.860951 32.6089 0.146909 29.0436C0.0465968 28.5411 0.00920768 28.0175 0.00829575 27.504C-0.00264742 22.7786 -0.000823558 18.0513 0.00282416 13.324C0.00555995 10.6407 1.88414 8.76915 4.56977 8.76277C5.78537 8.76003 7.00098 8.76277 8.21749 8.76277C8.38164 8.76277 8.54579 8.76277 8.70537 8.76277H8.70629ZM11.6327 8.73358H23.3063C23.5024 7.09732 22.3314 4.84268 20.741 3.86129C18.6071 2.54426 16.4139 2.49956 14.301 3.84487C12.5628 4.95122 11.712 6.62761 11.6336 8.73358H11.6327Z" fill="currentColor"></path>
<path class="custom-svg" d="M30.6136 30.6214C30.6136 31.6001 30.6154 32.5231 30.6136 33.4461C30.6117 34.3226 29.9898 34.9839 29.1654 34.9893C28.3547 34.9948 27.7346 34.3281 27.73 33.4425C27.7255 32.5468 27.7227 31.6502 27.7173 30.7546C27.7173 30.7281 27.6954 30.7017 27.6598 30.6214C26.7616 30.6214 25.8405 30.6287 24.9185 30.6196C24.199 30.6123 23.6555 30.2548 23.4503 29.6802C23.1029 28.7079 23.7704 27.7675 24.8383 27.7393C25.3089 27.7265 25.7794 27.7365 26.2509 27.7365C26.7196 27.7365 27.1893 27.7365 27.73 27.7365C27.73 27.4428 27.73 27.1765 27.73 26.9102C27.73 26.196 27.72 25.4819 27.7328 24.7686C27.7464 23.9998 28.4131 23.3577 29.1727 23.3586C29.9415 23.3586 30.5981 23.987 30.6108 24.7668C30.6263 25.7354 30.6145 26.705 30.6145 27.7365C31.5875 27.7365 32.5231 27.7283 33.4588 27.7393C34.0798 27.7466 34.5887 27.9874 34.854 28.5784C35.2717 29.5105 34.6908 30.5001 33.6475 30.5922C33.0147 30.6488 32.3736 30.6159 31.7361 30.6205C31.3878 30.6232 31.0394 30.6205 30.6145 30.6205L30.6136 30.6214Z" fill="#01a2ff"></path>
</svg>