<svg width="100%" height="100%" viewBox="0 0 42 35" fill="none" xmlns="http://www.w3.org/2000/svg">
<path d="M10.4724 34.9819C8.60908 35.0893 6.65913 34.7254 4.82317 33.7071C-0.550998 30.7247 -1.66573 23.1243 2.65509 18.7553C2.848 18.5602 3.05297 18.3771 3.2415 18.1787C3.66898 17.7282 3.83997 17.2153 3.73693 16.5795C2.94884 11.6822 4.19072 7.37232 7.78591 3.92838C11.4392 0.428542 15.8631 -0.725648 20.7878 0.437311C24.7941 1.38324 27.827 3.73656 29.7912 7.36574C30.3271 8.35551 30.9706 8.91672 32.1072 9.18745C37.5417 10.4852 41.4964 15.3026 41.9677 20.851C42.4522 26.5584 38.4218 33.1942 31.6447 34.6947C30.4499 34.9589 29.1817 34.9424 27.9464 34.9633C27.0224 34.9786 26.3045 34.1587 26.2979 33.2479C26.2913 32.3304 27.0432 31.5763 28.0056 31.5171C29.0776 31.4514 30.1759 31.4985 31.2139 31.2749C34.8749 30.4835 37.968 27.0396 38.4602 23.3424C39.1398 18.2379 36.0784 13.7297 31.055 12.4933C29.2102 12.0395 27.828 11.0695 26.9545 9.342C25.6095 6.67849 23.5335 4.81841 20.6497 3.94044C14.9051 2.19107 8.96751 5.384 7.3398 11.1089C6.91123 12.6182 6.81258 14.1703 7.09866 15.7191C7.4801 17.783 6.87506 19.4984 5.38108 20.9321C4.40336 21.8704 3.7742 22.9917 3.54183 24.3366C2.96967 27.6391 5.18159 30.8628 8.49619 31.3812C9.71066 31.5719 10.9701 31.4777 12.2087 31.5182C13.4549 31.5588 14.2649 32.7009 13.8594 33.8398C13.6281 34.4898 12.9968 34.9523 12.2635 34.9775C11.7341 34.9961 11.2035 34.9808 10.4724 34.9808V34.9819Z" fill="currentColor"></path>
<path d="M18.4126 25.6387C18.4235 23.4948 19.3212 21.8572 21.1955 20.7743C22.7706 19.8645 23.2409 18.2971 22.3749 16.8908C21.7995 15.9569 20.653 15.4867 19.5744 15.7421C18.4246 16.0139 17.5806 16.9566 17.4907 18.068C17.3811 19.4129 16.6237 20.1922 15.5528 20.0618C14.4699 19.9303 13.8791 18.9854 14.061 17.6778C14.494 14.5638 16.8725 12.3683 19.9646 12.2291C22.7235 12.1052 25.2555 13.9883 26.0337 16.7439C26.7736 19.3603 25.5328 22.334 23.0874 23.6658C22.2105 24.1437 21.7973 24.8002 21.8664 25.7834C21.8806 25.9829 21.8762 26.1868 21.8521 26.3852C21.7436 27.2938 20.9917 27.9734 20.1159 27.9647C19.2368 27.957 18.5024 27.2664 18.4158 26.3501C18.3939 26.1144 18.4126 25.8755 18.4126 25.6387Z" fill="#01A2FF"></path>
<path d="M17.5259 32.3513C17.5127 30.9658 18.6998 29.7766 20.1083 29.7634C21.5332 29.7503 22.7082 30.9099 22.7433 32.3645C22.7773 33.7609 21.5562 34.9797 20.1247 34.9786C18.6888 34.9786 17.5401 33.8157 17.5259 32.3513Z" fill="#01A2FF"></path>
</svg>