<svg width="100%" height="100%" viewBox="0 0 36 35" fill="none" xmlns="http://www.w3.org/2000/svg">
<path d="M17.4882 0.00553888C21.1221 0.00553888 24.7561 -0.00631887 28.39 0.00918742C31.5962 0.0228694 34.3143 2.22476 34.8197 5.37892C35.1316 7.32542 35.1973 9.32573 34.6993 11.2658C34.0051 13.9694 31.4265 15.9597 28.6336 16.019C27.3721 16.0463 26.1097 16.0345 24.8473 16.0254C23.9826 16.019 23.335 15.3932 23.3322 14.5897C23.3295 13.7879 23.9789 13.154 24.8391 13.1457C26.0094 13.1348 27.1805 13.1485 28.3517 13.1412C30.5007 13.1284 32.0796 11.5377 32.0887 9.38228C32.0924 8.44005 32.0997 7.4969 32.086 6.55466C32.0568 4.48594 30.4624 2.89792 28.39 2.89427C23.3113 2.88606 18.2325 2.89153 13.1546 2.89153C11.0111 2.89153 8.86578 2.93805 6.72318 2.87876C4.43007 2.81583 2.72164 4.73678 2.84752 6.74165C2.9059 7.66564 2.84934 8.59602 2.85938 9.52275C2.88127 11.5121 4.46838 13.1056 6.45319 13.1412C6.75693 13.1467 7.06249 13.1275 7.36532 13.154C8.1078 13.2178 8.68244 13.8508 8.69157 14.5924C8.69977 15.292 8.12695 15.9542 7.4009 16.0135C4.13089 16.2835 1.29963 14.5368 0.299927 11.4893C0.154898 11.046 0.0226384 10.5708 0.0244627 10.1111C0.0326719 8.4291 -0.103236 6.71155 0.189559 5.07427C0.717685 2.14176 3.41943 0.0402 6.40393 0.0155724C10.099 -0.0145281 13.794 0.00827528 17.4882 0.00827528V0.00553888Z" fill="#01A2FF"></path>
<path d="M11.6596 28.5563C11.6596 28.279 11.6596 28.113 11.6596 27.9479C11.6596 24.4973 11.6505 21.0467 11.6633 17.5961C11.6715 15.3212 13.2085 13.5298 15.3866 13.2105C17.7226 12.8685 19.9099 14.4729 20.2848 16.8144C20.3468 17.202 20.376 17.5997 20.3778 17.9929C20.387 19.9841 20.3906 21.9752 20.3742 23.9664C20.3714 24.3368 20.4663 24.5219 20.8375 24.6569C22.9482 25.4231 25.0525 26.2085 27.1495 27.0121C30.0638 28.1294 31.6755 30.2684 32.0395 33.356C32.1325 34.1495 31.4776 34.9139 30.6594 34.9941C29.9334 35.0662 29.2657 34.4697 29.1781 33.6305C29.0842 32.733 28.8087 31.913 28.2505 31.1969C27.7534 30.5603 27.1331 30.0832 26.376 29.7968C23.8065 28.8263 21.2352 27.8613 18.6658 26.8926C17.8038 26.5678 17.5028 26.1355 17.5019 25.2051C17.5 22.7734 17.5092 20.3407 17.4918 17.909C17.4891 17.5541 17.4298 17.1747 17.2903 16.8527C17.0184 16.2215 16.39 15.9251 15.7606 16.0455C15.0966 16.1722 14.6004 16.7268 14.5493 17.4073C14.5365 17.5733 14.5429 17.7411 14.5429 17.909C14.5429 21.8311 14.5411 25.7524 14.5429 29.6746C14.5429 30.4991 14.282 31.1924 13.5852 31.6813C12.7661 32.2559 11.76 32.2842 10.9518 31.6813C10.0151 30.9817 9.11844 30.2273 8.19992 29.504C7.597 29.0297 6.81713 29.0489 6.28262 29.5368C5.6651 30.1024 5.6049 30.9908 6.16404 31.6183C6.43585 31.9239 6.74872 32.1939 7.03695 32.4858C7.64991 33.1069 7.67727 33.9671 7.1081 34.5673C6.5672 35.1383 5.69976 35.1419 5.05853 34.5627C4.17467 33.7646 3.33004 32.9501 3.03542 31.7168C2.62222 29.9856 3.28078 28.1395 4.74202 27.0841C6.17042 26.0534 8.14246 26.0041 9.62285 27.0066C10.2969 27.4626 10.9217 27.9908 11.6587 28.5554L11.6596 28.5563Z" fill="currentColor"></path>
</svg>